HIERARCHY
ROOT Model
{
	OFFSET 0 0 0
	CHANNELS 6 Xposition Yposition Zposition Zrotation Xrotation Yrotation
	JOINT Model1
	{
		OFFSET 0 -2.25479 2.99384
		CHANNELS 3 Zrotation Xrotation Yrotation
		JOINT Model2
		{
			OFFSET 12.111 0 0
			CHANNELS 3 Zrotation Xrotation Yrotation
			JOINT Model3
			{
				OFFSET 11.5502 0 0
				CHANNELS 3 Zrotation Xrotation Yrotation
				JOINT Model4
				{
					OFFSET 11.781 0 0
					CHANNELS 3 Zrotation Xrotation Yrotation
					JOINT Model5
					{
						OFFSET 20.0601 0 0
						CHANNELS 3 Zrotation Xrotation Yrotation
						JOINT Model6
						{
							OFFSET 11.1962 0 0
							CHANNELS 3 Zrotation Xrotation Yrotation
							End Site
							{
								OFFSET 0 0 0
							}
						}
					}
					JOINT Model7
					{
						OFFSET 10.8223 0.417534 3.51114
						CHANNELS 3 Zrotation Xrotation Yrotation
						JOINT Model8
						{
							OFFSET -6.07944 0 0
							CHANNELS 3 Zrotation Xrotation Yrotation
							JOINT Model9
							{
								OFFSET -0.277405 10.39 -0.051239
								CHANNELS 3 Zrotation Xrotation Yrotation
								JOINT Model10
								{
									OFFSET -3.43909 -0.282043 1.86679
									CHANNELS 3 Zrotation Xrotation Yrotation
									JOINT Model11
									{
										OFFSET 13.0269 0 0
										CHANNELS 3 Zrotation Xrotation Yrotation
										JOINT Model12
										{
											OFFSET 10.8866 0 0
											CHANNELS 3 Zrotation Xrotation Yrotation
											JOINT Model13
											{
												OFFSET 16.7317 0 0
												CHANNELS 3 Zrotation Xrotation Yrotation
												JOINT Model14
												{
													OFFSET 11.8292 0 0
													CHANNELS 3 Zrotation Xrotation Yrotation
													JOINT Model15
													{
														OFFSET 4.82751 -3.73566 -0.836517
														CHANNELS 3 Zrotation Xrotation Yrotation
														JOINT Model16
														{
															OFFSET 3.75311 -0.0582886 -0.0186462
															CHANNELS 3 Zrotation Xrotation Yrotation
															JOINT Model17
															{
																OFFSET 2.88689 0.0192337 0.014801
																CHANNELS 3 Zrotation Xrotation Yrotation
																End Site
																{
																	OFFSET 0 0 0
																}
															}
														}
													}
													JOINT Model18
													{
														OFFSET 9.72197 -3.06458 0.23877
														CHANNELS 3 Zrotation Xrotation Yrotation
														JOINT Model19
														{
															OFFSET 4.61131 0 0
															CHANNELS 3 Zrotation Xrotation Yrotation
															JOINT Model20
															{
																OFFSET 2.8969 -7.62939e-006 0
																CHANNELS 3 Zrotation Xrotation Yrotation
																End Site
																{
																	OFFSET 0 0 0
																}
															}
														}
													}
													JOINT Model21
													{
														OFFSET 9.54431 -0.745064 0.588928
														CHANNELS 3 Zrotation Xrotation Yrotation
														JOINT Model22
														{
															OFFSET 5.33978 0 0
															CHANNELS 3 Zrotation Xrotation Yrotation
															JOINT Model23
															{
																OFFSET 3.03619 7.62939e-006 0
																CHANNELS 3 Zrotation Xrotation Yrotation
																End Site
																{
																	OFFSET 0 0 0
																}
															}
														}
													}
													JOINT Model24
													{
														OFFSET 9.47758 1.51286 0.485107
														CHANNELS 3 Zrotation Xrotation Yrotation
														JOINT Model25
														{
															OFFSET 4.96136 7.62939e-006 0
															CHANNELS 3 Zrotation Xrotation Yrotation
															JOINT Model26
															{
																OFFSET 2.51965 0 0
																CHANNELS 3 Zrotation Xrotation Yrotation
																End Site
																{
																	OFFSET 0 0 0
																}
															}
														}
													}
													JOINT Model27
													{
														OFFSET 9.34247 3.34117 -0.239288
														CHANNELS 3 Zrotation Xrotation Yrotation
														JOINT Model28
														{
															OFFSET 3.28259 2.28882e-005 0
															CHANNELS 3 Zrotation Xrotation Yrotation
															JOINT Model29
															{
																OFFSET 2.1292 0 0
																CHANNELS 3 Zrotation Xrotation Yrotation
																End Site
																{
																	OFFSET 0 0 0
																}
															}
														}
													}
												}
											}
										}
									}
								}
							}
						}
					}
					JOINT Model30
					{
						OFFSET 10.8223 0.4179 -3.51108
						CHANNELS 3 Zrotation Xrotation Yrotation
						JOINT Model31
						{
							OFFSET 6.07944 0 0
							CHANNELS 3 Zrotation Xrotation Yrotation
							JOINT Model32
							{
								OFFSET 0.277405 -10.39 0.051239
								CHANNELS 3 Zrotation Xrotation Yrotation
								JOINT Model33
								{
									OFFSET 3.43909 0.282043 -1.86679
									CHANNELS 3 Zrotation Xrotation Yrotation
									JOINT Model34
									{
										OFFSET -13.0269 0 0
										CHANNELS 3 Zrotation Xrotation Yrotation
										JOINT Model35
										{
											OFFSET -10.8866 0 0
											CHANNELS 3 Zrotation Xrotation Yrotation
											JOINT Model36
											{
												OFFSET -16.7317 0 0
												CHANNELS 3 Zrotation Xrotation Yrotation
												JOINT Model37
												{
													OFFSET -11.8292 0 0
													CHANNELS 3 Zrotation Xrotation Yrotation
													JOINT Model38
													{
														OFFSET -4.82751 3.73566 0.836517
														CHANNELS 3 Zrotation Xrotation Yrotation
														JOINT Model39
														{
															OFFSET -3.75311 0.0582886 0.0186462
															CHANNELS 3 Zrotation Xrotation Yrotation
															JOINT Model40
															{
																OFFSET -2.88687 -0.0192337 -0.014801
																CHANNELS 3 Zrotation Xrotation Yrotation
																End Site
																{
																	OFFSET 0 0 0
																}
															}
														}
													}
													JOINT Model41
													{
														OFFSET -9.72198 3.06459 -0.23877
														CHANNELS 3 Zrotation Xrotation Yrotation
														JOINT Model42
														{
															OFFSET -4.6113 0 0
															CHANNELS 3 Zrotation Xrotation Yrotation
															JOINT Model43
															{
																OFFSET -2.89691 0 0
																CHANNELS 3 Zrotation Xrotation Yrotation
																End Site
																{
																	OFFSET 0 0 0
																}
															}
														}
													}
													JOINT Model44
													{
														OFFSET -9.54431 0.745064 -0.588928
														CHANNELS 3 Zrotation Xrotation Yrotation
														JOINT Model45
														{
															OFFSET -5.33978 0 0
															CHANNELS 3 Zrotation Xrotation Yrotation
															JOINT Model46
															{
																OFFSET -3.03619 -1.52588e-005 0
																CHANNELS 3 Zrotation Xrotation Yrotation
																End Site
																{
																	OFFSET 0 0 0
																}
															}
														}
													}
													JOINT Model47
													{
														OFFSET -9.4776 -1.51286 -0.485107
														CHANNELS 3 Zrotation Xrotation Yrotation
														JOINT Model48
														{
															OFFSET -4.96136 -1.52588e-005 0
															CHANNELS 3 Zrotation Xrotation Yrotation
															JOINT Model49
															{
																OFFSET -2.51965 0 0
																CHANNELS 3 Zrotation Xrotation Yrotation
																End Site
																{
																	OFFSET 0 0 0
																}
															}
														}
													}
													JOINT Model50
													{
														OFFSET -9.34247 -3.34118 0.239288
														CHANNELS 3 Zrotation Xrotation Yrotation
														JOINT Model51
														{
															OFFSET -3.28259 -2.28882e-005 0
															CHANNELS 3 Zrotation Xrotation Yrotation
															JOINT Model52
															{
																OFFSET -2.12921 0 0
																CHANNELS 3 Zrotation Xrotation Yrotation
																End Site
																{
																	OFFSET 0 0 0
																}
															}
														}
													}
												}
											}
										}
									}
								}
							}
						}
					}
				}
			}
		}
	}
	JOINT Model53
	{
		OFFSET 4.38025 -2.14632 -1.11517
		CHANNELS 3 Zrotation Xrotation Yrotation
		JOINT Model54
		{
			OFFSET 0 0 4.94998
			CHANNELS 3 Zrotation Xrotation Yrotation
			JOINT Model55
			{
				OFFSET 18.5642 0 0
				CHANNELS 3 Zrotation Xrotation Yrotation
				JOINT Model56
				{
					OFFSET 21.2884 0 0
					CHANNELS 3 Zrotation Xrotation Yrotation
					JOINT Model57
					{
						OFFSET 30.261 0 0
						CHANNELS 3 Zrotation Xrotation Yrotation
						JOINT Model58
						{
							OFFSET 11.7259 0 0
							CHANNELS 3 Zrotation Xrotation Yrotation
							JOINT Model59
							{
								OFFSET 10.682 0 0
								CHANNELS 3 Zrotation Xrotation Yrotation
								End Site
								{
									OFFSET 0 0 0
								}
							}
						}
					}
				}
			}
		}
	}
	JOINT Model60
	{
		OFFSET -4.38025 -2.14632 -1.11517
		CHANNELS 3 Zrotation Xrotation Yrotation
		JOINT Model61
		{
			OFFSET 0 0 -4.94998
			CHANNELS 3 Zrotation Xrotation Yrotation
			JOINT Model62
			{
				OFFSET -18.5642 0 0
				CHANNELS 3 Zrotation Xrotation Yrotation
				JOINT Model63
				{
					OFFSET -21.2884 0 0
					CHANNELS 3 Zrotation Xrotation Yrotation
					JOINT Model64
					{
						OFFSET -30.261 0 0
						CHANNELS 3 Zrotation Xrotation Yrotation
						JOINT Model65
						{
							OFFSET -11.7259 0 0
							CHANNELS 3 Zrotation Xrotation Yrotation
							JOINT Model66
							{
								OFFSET -10.682 0 0
								CHANNELS 3 Zrotation Xrotation Yrotation
								End Site
								{
									OFFSET 0 0 0
								}
							}
						}
					}
				}
			}
		}
	}
}
MOTION
Frames: 4
Frame Time: 0.033333
-305.562 368.925 -434.353 73.5035 -40.1992 76.9303 -180 4.29621e-031 -90 2.0509 -0.335277 -0.165728 4.10093 -0.676706 -0.31936 4.10093 -0.67627 -0.319391 0.170433 5.36894 -1.27733 24.5082 4.11948 -5.81227 120.092 75.5343 58.4939 -5.11986 1.9555 1.90505 -167.277 84.4999 48.8109 165.037 11.8751 23.1804 -1.12645e-005 35.4784 3.54233e-005 -65.8699 7.17168 0.55991 9.48377e-007 10.1023 1.11362e-006 -15.4075 2.33021 -17.1003 -72.0648 39.0385 39.3397 33.3638 2.10362 14.835 0.588947 0.308273 6.35287 -99.6409 81.413 100.35 -0.0181409 2.7775e-005 -0.117315 -0.124139 0.00241111 -0.799296 -79.8382 79.5773 80.5374 -0.000225782 -0.000220926 2.21712e-005 -0.000956233 0.000122891 -2.73522e-005 -66.7416 80.4058 67.2171 -0.000437138 1.59418e-005 -2.73436e-005 -0.000136612 -0.000109296 -5.46725e-005 -6.42159 81.2158 8.01779 -0.000218574 1.68953e-005 0.000212119 0.000901573 -0.000184819 -0.000218594 -59.9282 75.5373 58.5147 -4.39544 2.41385 1.92351 -167.277 84.4999 48.8109 -177.713 11.2099 23.9492 -1.01291e-005 30.4301 3.3742e-005 -97.9633 15.7044 0.626817 -8.85025e-006 23.2609 4.22037e-006 -11.3319 0.549351 -5.53287 -72.0648 39.0385 39.3397 33.3638 2.10361 14.835 0.588946 0.308273 6.35287 -99.6409 81.413 100.35 -0.0181409 3.00749e-005 -0.117315 -0.124139 0.00241113 -0.799296 -79.8382 79.5773 80.5374 -0.000260656 -0.00021857 2.35906e-005 -0.00095624 0.000122991 -2.72934e-005 -66.7416 80.4058 67.2171 -0.000437142 1.48778e-005 -2.73001e-005 -0.000136617 -0.000109288 -5.46136e-005 -6.42159 81.2158 8.01779 -0.000218574 1.95779e-005 0.000212318 0.000901572 -0.000191246 -0.000218537 0.000811311 0.56661 89.91 -45.2897 -3.75248 -2.86083 5.42312e-008 -4.94665 2.54002e-010 47.001 -1.23823 -0.0061764 -4.83144e-008 -1.94445 -3.36473e-008 -64.6286 3.31506 -2.72193 -35.4947 2.91128e-005 -5.13661e-006 -180 -0.566579 -90.09 -33.4152 -0.336912 -4.77765 -1.29874e-006 1.32773 -5.91247e-008 44.9567 -1.5438 -0.958739 2.30361e-007 -2.40001 -4.70866e-007 -73.8498 0.913305 -1.55221 -35.4947 3.35909e-006 1.24308e-006 
-306.201 368.802 -433.893 74.2035 -37.5342 78.4217 -180 4.29621e-031 -90 2.05505 -0.254332 -0.0382618 4.11 -0.510309 -0.0673795 4.10999 -0.509873 -0.0674108 0.815055 6.15116 -2.71163 24.9778 4.6368 -5.36095 120.092 75.5343 58.4939 -5.53916 0.955501 1.62587 -167.277 84.4999 48.8109 165.564 12.0276 22.7094 -1.14438e-005 35.7139 3.55277e-005 -66.0461 7.04367 0.56053 9.52152e-007 9.91098 1.11296e-006 -15.6979 2.44445 -17.5953 -72.0648 39.0385 39.3397 33.3638 2.10362 14.835 0.588947 0.308273 6.35287 -99.6409 81.413 100.35 -0.0181409 2.7775e-005 -0.117315 -0.124139 0.00241111 -0.799296 -79.8382 79.5773 80.5374 -0.000225782 -0.000220926 2.21712e-005 -0.000956233 0.000122891 -2.73522e-005 -66.7416 80.4058 67.2171 -0.000437138 1.59418e-005 -2.73436e-005 -0.000136612 -0.000109296 -5.46725e-005 -6.42159 81.2158 8.01779 -0.000218574 1.68953e-005 0.000212119 0.000901573 -0.000184819 -0.000218594 -59.9282 75.5373 58.5147 -1.88492 3.36145 1.73607 -167.277 84.4999 48.8109 178.617 12.0849 24.0994 -1.1629e-005 32.577 3.4526e-005 -101.576 16.7468 0.623481 -8.98263e-006 24.8914 4.27438e-006 -11.6688 0.499367 -4.88408 -72.0648 39.0385 39.3397 33.3638 2.10361 14.835 0.588946 0.308273 6.35287 -99.6409 81.413 100.35 -0.0181409 3.00749e-005 -0.117315 -0.124139 0.00241113 -0.799296 -79.8382 79.5773 80.5374 -0.000260656 -0.00021857 2.35906e-005 -0.00095624 0.000122991 -2.72934e-005 -66.7416 80.4058 67.2171 -0.000437142 1.48778e-005 -2.73001e-005 -0.000136617 -0.000109288 -5.46136e-005 -6.42159 81.2158 8.01779 -0.000218574 1.95779e-005 0.000212318 0.000901572 -0.000191246 -0.000218537 0.000811311 0.56661 89.91 -45.1149 -4.86843 -3.45398 5.42381e-008 -6.49448 2.5469e-010 49.8862 -4.10084 -0.00647317 -5.08513e-008 -6.24283 -3.38286e-008 -63.4504 5.63111 -4.1017 -35.4947 2.9482e-005 -5.25073e-006 -180 -0.566579 -90.09 -33.0058 -0.822418 -4.67794 -1.29951e-006 0.589577 -5.9112e-008 45.1436 -2.14329 -0.379193 2.22959e-007 -3.29927 -4.71234e-007 -74.0287 0.106883 -1.17433 -35.4947 3.45213e-006 1.21201e-006 
-306.563 368.717 -433.315 74.865 -34.4425 79.8084 -180 4.29621e-031 -90 2.0103 -0.25527 0.0163628 4.02072 -0.510245 0.041671 4.02072 -0.509809 0.0416404 1.92042 6.47909 -3.22534 24.8614 4.92401 -5.15881 120.092 75.5343 58.4939 -5.57589 0.492801 1.46502 -167.277 84.4999 48.8109 166.509 12.1697 22.4724 -1.15162e-005 35.8085 3.557e-005 -66.2573 6.73297 0.561092 9.61312e-007 9.44578 1.11142e-006 -16.0956 2.53632 -17.7967 -72.0648 39.0385 39.3397 33.3638 2.10362 14.835 0.588947 0.308273 6.35287 -99.6409 81.413 100.35 -0.0181409 2.7775e-005 -0.117315 -0.124139 0.00241111 -0.799296 -79.8382 79.5773 80.5374 -0.000225782 -0.000220926 2.21712e-005 -0.000956233 0.000122891 -2.73522e-005 -66.7416 80.4058 67.2171 -0.000437138 1.59418e-005 -2.73436e-005 -0.000136612 -0.000109296 -5.46725e-005 -6.42159 81.2158 8.01779 -0.000218574 1.68953e-005 0.000212119 0.000901573 -0.000184819 -0.000218594 -59.9282 75.5373 58.5147 0.337053 3.74969 1.40174 -167.277 84.4999 48.8109 173.635 12.73 24.663 -1.30428e-005 34.5106 3.53073e-005 -104.947 17.7047 0.618231 -9.10782e-006 26.3947 4.32856e-006 -11.2875 0.516678 -5.22482 -72.0648 39.0385 39.3397 33.3638 2.10361 14.835 0.588946 0.308273 6.35287 -99.6409 81.413 100.35 -0.0181409 3.00749e-005 -0.117315 -0.124139 0.00241113 -0.799296 -79.8382 79.5773 80.5374 -0.000260656 -0.00021857 2.35906e-005 -0.00095624 0.000122991 -2.72934e-005 -66.7416 80.4058 67.2171 -0.000437142 1.48778e-005 -2.73001e-005 -0.000136617 -0.000109288 -5.46136e-005 -6.42159 81.2158 8.01779 -0.000218574 1.95779e-005 0.000212318 0.000901572 -0.000191246 -0.000218537 0.000811311 0.56661 89.91 -43.7336 -5.60095 -3.10929 5.42431e-008 -7.60766 2.55303e-010 50.0463 -4.46053 -0.00649322 -5.11723e-008 -6.7826 -3.3865e-008 -63.1183 7.95998 -5.50869 -35.4947 2.98461e-005 -5.36383e-006 -180 -0.566579 -90.09 -32.4892 -1.19993 -4.34049 -1.30019e-006 -0.0702984 -5.91089e-008 45.4062 -2.96895 -0.173334 2.12739e-007 -4.53813 -4.71933e-007 -74.218 -0.492031 -0.897937 -35.4947 3.54468e-006 1.1807e-006 
-306.722 368.587 -432.692 75.4889 -30.8876 81.2216 -180 4.29621e-031 -90 1.92542 -0.2388 0.0213492 3.85097 -0.477184 0.0507104 3.85097 -0.476748 0.0506811 3.40491 6.21154 -2.64925 24.4214 4.77163 -5.65235 120.092 75.5343 58.4939 -5.14022 0.77251 1.48598 -167.277 84.4999 48.8109 167.443 12.2767 22.585 -1.14878e-005 35.7715 3.55534e-005 -66.0936 6.81351 0.560473 9.58949e-007 9.56593 1.11181e-006 -16.345 2.64449 -18.2611 -72.0648 39.0385 39.3397 33.3638 2.10362 14.835 0.588947 0.308273 6.35287 -99.6409 81.413 100.35 -0.0181409 2.7775e-005 -0.117315 -0.124139 0.00241111 -0.799296 -79.8382 79.5773 80.5374 -0.000225782 -0.000220926 2.21712e-005 -0.000956233 0.000122891 -2.73522e-005 -66.7416 80.4058 67.2171 -0.000437138 1.59418e-005 -2.73436e-005 -0.000136612 -0.000109296 -5.46725e-005 -6.42159 81.2158 8.01779 -0.000218574 1.68953e-005 0.000212119 0.000901573 -0.000184819 -0.000218594 -59.9282 75.5373 58.5147 1.72986 3.88152 1.1543 -167.277 84.4999 48.8109 168.275 12.8374 25.4887 -1.39221e-005 35.6698 3.58128e-005 -107.401 18.5284 0.613595 -9.21753e-006 27.6808 4.37843e-006 -10.0917 0.614786 -6.95441 -72.0648 39.0385 39.3397 33.3638 2.10361 14.835 0.588946 0.308273 6.35287 -99.6409 81.413 100.35 -0.0181409 3.00749e-005 -0.117315 -0.124139 0.00241113 -0.799296 -79.8382 79.5773 80.5374 -0.000260656 -0.00021857 2.35906e-005 -0.00095624 0.000122991 -2.72934e-005 -66.7416 80.4058 67.2171 -0.000437142 1.48778e-005 -2.73001e-005 -0.000136617 -0.000109288 -5.46136e-005 -6.42159 81.2158 8.01779 -0.000218574 1.95779e-005 0.000212318 0.000901572 -0.000191246 -0.000218537 0.000811311 0.56661 89.91 -42.2751 -5.25439 -1.66011 5.42421e-008 -7.3765 2.55167e-010 48.5836 -4.57051 -0.00636775 -5.12692e-008 -6.94534 -3.38765e-008 -64.474 10.9346 -7.17369 -35.4947 3.0205e-005 -5.47585e-006 -180 -0.566579 -90.09 -32.0917 -1.14859 -3.59061 -1.30038e-006 -0.255255 -5.91094e-008 46.0647 -4.23657 -0.0206086 1.96972e-007 -6.44061 -4.73441e-007 -74.094 -1.45778 -0.436814 -35.4947 3.63669e-006 1.14917e-006 
